<svg width="251" height="101" viewBox="0 0 251 101" fill="none" xmlns="http://www.w3.org/2000/svg">
<rect width="250" height="100" transform="translate(0.731445 0.695068)" fill="white"/>
<path d="M234.028 38.6095L239.656 38.6095M239.656 38.6095L243.032 40.5792M239.656 38.6095L243.032 36.6399" stroke="#FF0000"/>
<path d="M171.807 37.3224C204.507 37.3225 191.772 37.3225 202.152 37.3225C212.532 37.3225 207.014 37.3225 214.454 37.3225C217.982 37.3225 225.557 37.3225 225.557 37.3225" stroke="#65CD4A" stroke-width="6" stroke-linecap="round" stroke-linejoin="round"/>
<path fill-rule="evenodd" clip-rule="evenodd" d="M238.623 34.8408L233.928 38.6095L237.155 41.1998C236.485 41.5958 235.703 41.823 234.869 41.823L227.864 41.823C225.379 41.823 223.364 39.8083 223.364 37.323C223.364 34.8377 225.379 32.823 227.864 32.823L234.869 32.823C236.436 32.823 237.817 33.6249 238.623 34.8408Z" fill="#62C549"/>
<ellipse cx="230.993" cy="37.323" rx="1.5" ry="1.50002" fill="#FDF30F"/>
<path d="M76.6318 37.6247L82.2593 37.6247M82.2593 37.6247L85.6358 39.5943M82.2593 37.6247L85.6358 35.6551" stroke="#FF0000"/>
<path d="M12.5391 36.2695C50.8256 36.2695 35.915 36.2695 48.0682 36.2695C60.2213 36.2695 53.7607 36.2695 62.4718 36.2695C66.602 36.2695 75.4718 36.2695 75.4718 36.2695" stroke="#65CD4A" stroke-width="6" stroke-linecap="round" stroke-linejoin="round"/>
<path d="M68.4678 36.3382L75.4721 36.3382" stroke="#62C549" stroke-width="9" stroke-linecap="round" stroke-linejoin="round"/>
<ellipse cx="72.8701" cy="36.3382" rx="1.5" ry="1.50002" fill="#FDF30F"/>
<path d="M59.8985 49.6136L59.8985 43.9861M59.8985 43.9861L61.8682 40.6096M59.8985 43.9861L57.9289 40.6096" stroke="#FF0000"/>
<path d="M58.6113 57.8021L58.6113 50.7978" stroke="#62C549" stroke-width="9" stroke-linecap="round" stroke-linejoin="round"/>
<ellipse cx="58.6114" cy="53.1951" rx="1.5" ry="1.50002" transform="rotate(-90 58.6114 53.1951)" fill="#FDF30F"/>
<path d="M58.5585 57.9706C58.5585 78.787 57.3649 84.7227 71.0729 84.7227C84.7809 84.7227 139.22 84.7228 177.611 84.7227C191.365 84.7227 188.481 77.1782 188.481 50.1778V43.8069V38.6096" stroke="#65CD4A" stroke-width="6" stroke-linecap="round" stroke-linejoin="round"/>
<circle cx="188.455" cy="37.8204" r="5" fill="#62C549"/>
<rect x="87.9277" y="14.9441" width="79.0762" height="44.7578" fill="white" stroke="#4F4F4F"/>
<path d="M105.341 39.1239C105.341 41.0614 104.896 42.62 104.005 43.7997C103.114 44.9716 101.919 45.5575 100.419 45.5575C98.8174 45.5575 97.5791 44.9911 96.7041 43.8583L96.5986 45.3231H94.6064V27.3231H96.7744V34.038C97.6494 32.952 98.8564 32.4091 100.396 32.4091C101.935 32.4091 103.142 32.9911 104.017 34.1552C104.899 35.3192 105.341 36.913 105.341 38.9364V39.1239ZM103.173 38.8778C103.173 37.4012 102.888 36.2606 102.317 35.4559C101.747 34.6512 100.927 34.2489 99.8564 34.2489C98.4268 34.2489 97.3994 34.913 96.7744 36.2411V41.7255C97.4385 43.0536 98.4736 43.7177 99.8799 43.7177C100.919 43.7177 101.728 43.3153 102.306 42.5106C102.884 41.7059 103.173 40.495 103.173 38.8778ZM108.396 38.8778C108.396 36.9325 108.857 35.37 109.778 34.1903C110.7 33.0028 111.907 32.4091 113.4 32.4091C114.884 32.4091 116.06 32.9169 116.927 33.9325V27.3231H119.095V45.3231H117.103L116.997 43.9637C116.13 45.0262 114.923 45.5575 113.376 45.5575C111.907 45.5575 110.708 44.9559 109.778 43.7528C108.857 42.5497 108.396 40.9794 108.396 39.0419V38.8778ZM110.564 39.1239C110.564 40.5614 110.861 41.6864 111.454 42.4989C112.048 43.3114 112.868 43.7177 113.915 43.7177C115.29 43.7177 116.294 43.1005 116.927 41.8661V36.0419C116.278 34.8466 115.282 34.2489 113.939 34.2489C112.876 34.2489 112.048 34.6591 111.454 35.4794C110.861 36.2997 110.564 37.5145 110.564 39.1239ZM130.693 41.9598C130.693 41.3739 130.47 40.9208 130.025 40.6005C129.587 40.2723 128.818 39.9911 127.716 39.7567C126.622 39.5223 125.751 39.2411 125.103 38.913C124.462 38.5848 123.986 38.1942 123.673 37.7411C123.368 37.288 123.216 36.7489 123.216 36.1239C123.216 35.0848 123.654 34.2059 124.529 33.4872C125.411 32.7684 126.536 32.4091 127.904 32.4091C129.341 32.4091 130.505 32.7802 131.396 33.5223C132.294 34.2645 132.743 35.2137 132.743 36.37H130.564C130.564 35.7762 130.31 35.2645 129.802 34.8348C129.302 34.4052 128.669 34.1903 127.904 34.1903C127.115 34.1903 126.497 34.3622 126.052 34.7059C125.607 35.0497 125.384 35.4989 125.384 36.0536C125.384 36.577 125.591 36.9716 126.005 37.2372C126.419 37.5028 127.165 37.7567 128.243 37.9989C129.329 38.2411 130.208 38.5302 130.88 38.8661C131.552 39.202 132.048 39.6083 132.368 40.0848C132.697 40.5536 132.861 41.1278 132.861 41.8075C132.861 42.9403 132.408 43.8505 131.501 44.538C130.595 45.2177 129.419 45.5575 127.974 45.5575C126.958 45.5575 126.06 45.3778 125.279 45.0184C124.497 44.6591 123.884 44.1591 123.439 43.5184C123.001 42.87 122.783 42.1708 122.783 41.4208H124.951C124.99 42.1473 125.279 42.7255 125.818 43.1552C126.365 43.577 127.083 43.788 127.974 43.788C128.794 43.788 129.451 43.6239 129.943 43.2958C130.443 42.9598 130.693 42.5145 130.693 41.9598ZM138.88 45.3231H136.712V32.6434H138.88V45.3231ZM136.537 29.2802C136.537 28.9286 136.642 28.6317 136.853 28.3895C137.072 28.1473 137.392 28.0262 137.814 28.0262C138.236 28.0262 138.556 28.1473 138.775 28.3895C138.994 28.6317 139.103 28.9286 139.103 29.2802C139.103 29.6317 138.994 29.9247 138.775 30.1591C138.556 30.3934 138.236 30.5106 137.814 30.5106C137.392 30.5106 137.072 30.3934 136.853 30.1591C136.642 29.9247 136.537 29.6317 136.537 29.2802ZM145.24 32.6434L145.298 34.0497C146.228 32.9559 147.482 32.4091 149.06 32.4091C150.834 32.4091 152.041 33.0887 152.681 34.4481C153.103 33.8387 153.65 33.3466 154.322 32.9716C155.002 32.5966 155.802 32.4091 156.724 32.4091C159.506 32.4091 160.92 33.8817 160.966 36.827V45.3231H158.798V36.9559C158.798 36.0497 158.591 35.3739 158.177 34.9286C157.763 34.4755 157.068 34.2489 156.091 34.2489C155.287 34.2489 154.619 34.4911 154.088 34.9755C153.556 35.452 153.248 36.0966 153.162 36.9091V45.3231H150.982V37.0145C150.982 35.1708 150.08 34.2489 148.275 34.2489C146.853 34.2489 145.881 34.8544 145.357 36.0653V45.3231H143.189V32.6434H145.24Z" fill="#4F4F4F"/>
<path d="M45.3774 21.0229H45.7949V30.3393L45.978 30.5663L47.5967 30.6396V31.2695H42.5723V30.6249L44.2935 30.537L44.4766 30.2807V22.2094L42.1255 22.6269V21.997L45.3774 21.0229Z" fill="black"/>
<path d="M123.583 78.5363H128.094L128.365 77.2618H129.039V79.7228H122.096V78.778C124.283 77.0006 125.689 75.7042 126.314 74.8888C126.944 74.0734 127.259 73.2799 127.259 72.5084C127.259 71.8004 127.081 71.2462 126.725 70.8458C126.373 70.4454 125.885 70.2452 125.26 70.2452C125.025 70.2452 124.798 70.2745 124.579 70.3331C124.359 70.3917 124.142 70.4821 123.927 70.6041V72.2081C123.819 72.2814 123.709 72.3375 123.597 72.3766C123.485 72.4156 123.37 72.4352 123.253 72.4352C122.994 72.4352 122.789 72.3595 122.638 72.2081C122.486 72.0568 122.411 71.8517 122.411 71.5929C122.411 71.0314 122.721 70.5382 123.341 70.1134C123.966 69.6886 124.715 69.4762 125.589 69.4762C126.542 69.4762 127.298 69.735 127.86 70.2526C128.426 70.7653 128.709 71.4513 128.709 72.3107C128.709 73.1017 128.365 73.9293 127.677 74.7936C126.993 75.6578 125.628 76.9054 123.583 78.5363Z" fill="black"/>
<path d="M204.436 25.9741C205.256 26.0327 205.898 26.2768 206.362 26.7065C206.831 27.1362 207.065 27.6977 207.065 28.3911C207.065 29.2651 206.709 29.9926 205.996 30.5737C205.288 31.1498 204.377 31.4379 203.264 31.4379C202.449 31.4379 201.75 31.2695 201.169 30.9326C200.588 30.5956 200.298 30.2123 200.298 29.7827C200.298 29.5678 200.378 29.3871 200.54 29.2407C200.701 29.0942 200.901 29.0209 201.14 29.0209C201.223 29.0209 201.301 29.0283 201.375 29.0429C201.448 29.0527 201.519 29.0698 201.587 29.0942L202.056 30.3686C202.256 30.4907 202.461 30.581 202.671 30.6396C202.886 30.6982 203.105 30.7275 203.33 30.7275C204.004 30.7275 204.563 30.5029 205.007 30.0536C205.457 29.5995 205.681 29.0356 205.681 28.3618C205.681 27.7612 205.488 27.2997 205.103 26.9775C204.722 26.6503 204.175 26.4868 203.462 26.4868C203.325 26.4868 203.188 26.4916 203.052 26.5014C202.92 26.5112 202.793 26.5258 202.671 26.5453V25.6591C202.705 25.6591 202.756 25.6616 202.825 25.6664C202.893 25.6713 202.947 25.6738 202.986 25.6738C203.728 25.6738 204.299 25.5053 204.7 25.1684C205.105 24.8315 205.308 24.3554 205.308 23.7402C205.308 23.1494 205.134 22.6782 204.788 22.3266C204.441 21.9702 203.979 21.7919 203.403 21.7919C203.135 21.7919 202.883 21.8286 202.649 21.9018C202.415 21.9702 202.19 22.0776 201.975 22.2241V23.6376C201.887 23.7011 201.792 23.7499 201.689 23.7841C201.592 23.8134 201.482 23.8281 201.36 23.8281C201.121 23.8281 200.925 23.7548 200.774 23.6083C200.627 23.457 200.554 23.2617 200.554 23.0224C200.554 22.4853 200.862 22.019 201.477 21.6235C202.092 21.2231 202.839 21.0229 203.718 21.0229C204.612 21.0229 205.327 21.2524 205.864 21.7114C206.401 22.1703 206.67 22.7807 206.67 23.5424C206.67 24.1284 206.479 24.6288 206.099 25.0439C205.718 25.454 205.164 25.7641 204.436 25.9741Z" fill="black"/>
</svg>
